<svg xmlns="http://www.w3.org/2000/svg" viewBox="0 0 177.45 167.92"><defs><style>.cls-1{isolation:isolate;}.cls-2{fill:#0a629f;}.cls-3{fill:#a5daf9;}.cls-4{fill:#fffffd;}.cls-5{fill:#edf4f9;}.cls-6{fill:#482e5e;}.cls-7,.cls-8{fill:#6fbbdd;}.cls-7{mix-blend-mode:multiply;opacity:0.54;}.cls-9{fill:#f5959d;}.cls-10{fill:#f7f9fa;}</style></defs><g class="cls-1"><g id="Capa_2" data-name="Capa 2"><g id="Capa_1-2" data-name="Capa 1"><path class="cls-2" d="M138.92,16.79a4.88,4.88,0,0,1,4.87-4.88h33.66V0H0V167.92H24.44V118.76c0-9.83,7.37-17.8,16.46-17.8h61.83A4.27,4.27,0,0,0,107,96.69v-57a8.35,8.35,0,0,1,8.35-8.35h18.47a5.1,5.1,0,0,0,5.1-5.1Z"/><path class="cls-3" d="M121.49,23.81l.48,0s.53-.31.51.87l0,1.19s.19.51-.83.51h-6.41s-1.28-.22-1.28.75V30a1,1,0,0,0-.77,1c0,.83.12,7.7.12,7.7s-.27.87,1.28.75c.72-.06.87-.8.77-3.66s0-4.79-.19-5.29a.41.41,0,0,0-.58-.32s0-2.64,0-2.64-.17-.38.51-.46,7.11,0,7.11,0a.73.73,0,0,0,.87-.75c0-.87,0-2.39,0-2.39s.1-.61-.77-.63-.75,0-.75,0Z"/><path class="cls-4" d="M121.56,23.25l0-1.19s.46-.58-.94-.6-12.87,0-12.87,0-.68-.17-.66.72,0,2.5,0,2.5-.36,1,1,1,12.46,0,12.46,0,1,.22,1-.6,0-1.24,0-1.24Z"/><ellipse class="cls-5" cx="90.21" cy="150.32" rx="36.57" ry="2.14"/><path class="cls-6" d="M86.85,118.76l.09-.84.3-.12c.57.39.48,1,.56,1.58a1,1,0,0,1-.68-.24A.42.42,0,0,0,86.85,118.76Z"/><path class="cls-7" d="M83.14,41.91c.89,4,1.51,4.7-2.45,4.75s-7.65,0-11.48,0c-1.41,0-1.41,0-1.45-1.37a.8.8,0,0,0-.12-.6c-.81,0-1.21-3.07-2-3.08a26,26,0,0,0-.53,4V76.14a4.28,4.28,0,0,0,0,.62v8.55c0,.42,0,.83,0,1.25a1.11,1.11,0,0,0,0,.19v20.7a4.28,4.28,0,0,0,0,.62v8.37c0,.42,0,.83,0,1.25a1.36,1.36,0,0,0,0,.2v29.77c0,.45,0,.89,0,1.34.08,1.13.62,1.7,1.5,1.59,1.07-.13,1.45-.74,1.22-2,0-2.26.09-4.52.14-6.77,0-.37.28-.37.56-.31H81.3c.32,0,.65,0,1,0,.57,0,.51.14.48.83v5.88c.06,1.89.7,2.24,2.55,1.81a6.82,6.82,0,0,0,.14-1.91q0-13.14,0-26.28c0-.24,0-.48,0-.71V120c0-2.4,0-4.79,0-7.19h0v-.38c0-.11.1-.21.31-.23.08-.39-.16-.69-.31-1.19q0-10.18,0-20.36c0-.24,0-.47,0-.71V88.66q0-3.6,0-7.2h0v-1.8q0-10.09,0-20.18c0-.24,0-.47,0-.71V57.52q0-3.59,0-7.19c0-.24-.11-.57.31-.62a1.09,1.09,0,0,0-.08-.59c-.34-.87-.65-1.74-.94-2.62s1-4.64-.37-4.61Zm-.41,24.22c0,1.12,0,1.18-1.06,1.25-.28,0-.58,0-.88,0-4.35,0-8.7,0-13.06,0,.06-2.66.06-5.32,0-8,0-.78.25-1,1.14-1,1.16.08,2.33.05,3.5,0,3.11,0,6.22,0,9.32,0,.85,0,1.14.23,1,1.33Zm0,40.79c.19,2.13-.56,2-.84,2-2.23,0-4.45,0-6.68,0h0c-2.16,0-4.32,0-6.49,0-1.18,0-.82-.69-.88-3.47.12-6.3-1.21-5.6,7-5.62,7.9.17,7.9-.05,7.9,2.64ZM80.36,88c-3.84.2-7.68,0-11.52.12-.7,0-1-.14-1.08-.77a2.24,2.24,0,0,0,0-1.17c0-2.26.09-4.51.14-6.77a.33.33,0,0,1,.12-.25q6.92,0,13.85,0a1.34,1.34,0,0,1,.84.16,2.44,2.44,0,0,1,0,.62v5.88a2.74,2.74,0,0,0,.36,1.53C82.76,88.24,82,88.16,80.36,88ZM83.09,75.6c.18,2.19-.21,2.19-2.4,2.19H69.21a4.82,4.82,0,0,1-1-.06c-.51-.27-.3-1.16-.35-3.37.12-6.3-1.21-5.6,7-5.62,7.9.16,7.9,0,7.9,2.64ZM67.75,90.51c0-.77.25-1,1.14-1,1.16.07,2.33,0,3.5,0,3.1,0,6.21,0,9.32,0,1.36,0,1.3.63.4,4.47.78,3.55,1.08,4.93-.44,4.51a3.2,3.2,0,0,0-.88,0c-4.35,0-8.7,0-13.06,0C67.79,95.83,67.79,93.17,67.75,90.51Zm0,26.82c0-2.28.09-4.56.14-6.84q7,0,14,0a1.36,1.36,0,0,1,.86.18c0,.11,0,.25,0,.43V117a12.11,12.11,0,0,1,0,2.12c-.13.39-1.38.42-2.31.35-3.84.2-7.69-.08-11.53,0-.75,0-1.07-.18-1.09-.93A2.2,2.2,0,0,0,67.79,117.33ZM81.9,48.05c1.38,0,1.28.37,1.42,4.93.07,4.23-.21,4.15-3,3.91-3.84.19-7.68,0-11.52.12-.79,0-1.11-.19-1.09-1,.06-2.64,0-5.28,0-7.92Q74.82,48.1,81.9,48.05Zm.82,80.36c0,1.27.12,1.41-1,1.41-.28,0-.58,0-.88,0-4,0-8,0-12,0-1,0-1.22-.4-1.14-1.66l0-5.68c-.06-1.16.11-1.6,1-1.61,1.16,0,2.32,0,3.49,0,3.2-.06,6.41,0,9.61,0,1,0,1.2.29,1,1.77Zm-.8,11.86c-2.23,0-4.45,0-6.68,0h0c-2.16,0-4.32,0-6.49,0-1.18,0-.82-.7-.88-3.47.12-6.3-1.21-5.6,7-5.62,7.9.16,7.9-.05,7.9,2.63C82.85,138.92,83.53,140.3,81.92,140.27Z"/><path class="cls-8" d="M116.34,148.8c.16.5.25,1-.28,1.35a1.24,1.24,0,0,1-1.54-.22L112,142.39c-.17-.85-.54-1-1.31-1-4.24,0-8.48,0-12.72,0h-.63c-.48,0-.51.14-.32.84l1.77,6.42a.94.94,0,0,1-.16,1.14,1.09,1.09,0,0,1-1.15.27,1.93,1.93,0,0,1-1.08-1l-10-34.28-.7-2.64a1.09,1.09,0,0,0-.08-.59c-.34-.87-.65-1.74-.94-2.62s-.2-.8-.51-1.86l-.2-.81a21.68,21.68,0,0,0-1-3.44L82.17,100a1.31,1.31,0,0,0-.47-1.15c0-.09,0-.18,0-.28-.72-2.94-1.54-5.85-2.52-8.72a3.89,3.89,0,0,0-.38-1.42c-.81-3-1.65-6.09-2.61-9.1a2.92,2.92,0,0,0-.37-1.25l-.24-.88c.05-.27,0-.5-.28-.62l-.05-.63a2.25,2.25,0,0,0-.34-1.07l-.16-.54c0-.2,0-.4-.18-.54l-.07-.52a41.3,41.3,0,0,0-1.22-4.11,5.36,5.36,0,0,1-.38-1.41c-.28-1-.54-2.06-.85-3.07-.63-2-1.05-4.07-1.81-6a2.73,2.73,0,0,0-.3-1.08c0-.45-.28-.85-.17-1.31a21.83,21.83,0,0,1,2,3.19c.68,1.08,1,2.41,2.3,3A4.55,4.55,0,0,0,74.87,65l0,.47c.52,2.58.34,2.16,1.94,2.08,2,.07,3.92.09,5.89,0a15.52,15.52,0,0,0,2.64,0l1.28,0c.29.37,0,.88.31,1.26l-1.59.09a13.7,13.7,0,0,0-2.64,0c-2,0-4,0-6-.07-.72,0-.76.24-.58.84.75,2.55,1.46,5.12,2.19,7.68a.73.73,0,0,0,.79.57l3.65-.05H85.4l3.4,0c.09.41.19.82.29,1.23l-3.69.12a13,13,0,0,0-2.65,0c-.92,0-1.83-.06-2.74-.06-1.08,0-1.14.1-.85,1.12.66,2.26,1.35,4.51,2,6.78.33,1.24.43,1.36,1.77,1.05a8.13,8.13,0,0,0,2.51.09l.57,0a2,2,0,0,1-.56,1.35,12.75,12.75,0,0,0-2.83,0c-.4,0-.67.19-.52.69.44,1.46.72,3,1.28,4.41a8.1,8.1,0,0,0,.42,4.43c1.83,5.79,3.95,11.48,5.81,17.26.26.79.41,1.6.59,2.41a.72.72,0,0,0,.8.66l4.44-.05,9.13,0a3.36,3.36,0,0,1,.43,1.42,4.31,4.31,0,0,0-.77-.14c-4.18,0-8.36,0-12.54,0-.6,0-.82.24-.65.83.73,2.47,1.46,4.93,2.17,7.41a1,1,0,0,0,1.13.86c2.43,0,4.86,0,7.29,0,.31,0,.68.1.81-.34a2.72,2.72,0,0,0,1.6.41c2.4,0,4.79,0,7.19-.07a1.54,1.54,0,0,0,0,.17c-.46.11-.21.41-.15.63Zm-12.61-8.7c2.17,0,4.33,0,6.5,0,.82,0,1-.24.74-1-.75-2.47-1.45-4.94-2.13-7.42a.8.8,0,0,0-.94-.68c-1.42,0-2.86.14-4.26.08-3-.12-6,0-9-.08-.7,0-.8.26-.62.88.73,2.47,1.44,4.94,2.13,7.43a.92.92,0,0,0,1.07.78C99.39,140.07,101.56,140.1,103.73,140.1Z"/><path class="cls-9" d="M115.19,50.45c0,1.18.17,2.36.17,3.55a2.19,2.19,0,0,1-1.86,2.34c-1.24.28-2.5.49-3.74.73L109.5,57l-.36-4.7.61-.13c.82,0,1-.43,1-1.13,0-4.27.12-8.54.13-12.81a2.36,2.36,0,0,1,1.36-2.35c.33-.17.75-.26.85-.72l1.89-.54c1.15.75,1.45,1.38,1.12,2.26-.18.49-.69.6-1,1-.84.22-1.12.72-.77,1.54Z"/><path class="cls-10" d="M109.14,52.3l.36,4.7a41.6,41.6,0,0,1-4.56.73c-1.24.14-1.24.11-1.14,1.39.17,2.34.42,4.67.46,7-1.92.12-3.83-1.25-4.87-3.49a17.48,17.48,0,0,1-1.06-4.56q-.49-2.84-1-5.67c.75-.22,1.55.07,2.29-.22a2,2,0,0,0,1.09,0,79.46,79.46,0,0,0,8,0h.36A.28.28,0,0,0,109.14,52.3Z"/><path class="cls-9" d="M74.05,62.49c-1.27-.63-1.62-2-2.3-3a21.83,21.83,0,0,0-2-3.19l0-.06a.31.31,0,0,0-.19-.38,12.71,12.71,0,0,0-1.9-3.16,30.05,30.05,0,0,0-2.08-3.77.42.42,0,0,0-.46-.2l-.33-.13a2.18,2.18,0,0,1-1.11-2.21l0-.3.71-.71a4.4,4.4,0,0,1,2.1.17c.52.28,1,.54,1.54.85s1.12.59,1.14,1.33a2.23,2.23,0,0,0,1,1.75c1.68,2.65,3.77,5,5.64,7.5a1,1,0,0,0,1.19.28c.48-.15.87-.53,1.41-.51l.6,5L79,62l-.29,0a1.82,1.82,0,0,0-1.27.23.65.65,0,0,0-.54.08Z"/><path class="cls-8" d="M70.19,49.44a2.23,2.23,0,0,1-1-1.75c0-.74-.62-1-1.14-1.33s-1-.57-1.54-.85c-.17-1.35-1-2.55-.93-3.95a1.54,1.54,0,0,1,2.68.71c.37,1.11.67,2.26,1,3.4.18.75.48,1.12,1.37,1.1,4-.07,8.11,0,12.16-.05a1.11,1.11,0,0,0,.16.07c1.42.27,1.61.06,1.17-1.28a18.49,18.49,0,0,1-.93-3.6,1.1,1.1,0,0,1,1.32-.6,1.91,1.91,0,0,1,1.47,1.48c.81,2.81,1.65,5.61,2.4,8.43.2.75.54.88,1.17.66-.09.38-.43.32-.7.38a2.68,2.68,0,0,0-1.49.36c-.5-.09-.9.23-1.34.35a10.32,10.32,0,0,0-.65-3c-.5-1.93-.54-1.92-2.58-1.81-3.94,0-7.87,0-11.81,0-.78,0-1.05.22-.75,1A1,1,0,0,1,70.19,49.44Z"/><path class="cls-10" d="M88.8,52.26c.27-.06.61,0,.7-.38a1,1,0,0,1,.91-.6l3.78.06a5.82,5.82,0,0,1,1.72,1c.27,1.61.52,3.22.81,4.82a3.12,3.12,0,0,1-.93,3.24,3.16,3.16,0,0,1-3.59.29,4.24,4.24,0,0,1-2.55-3.3C89.36,55.71,89,54,88.8,52.26Z"/><path class="cls-6" d="M97.17,40.12c0,.17,0,.35,0,.53a1.69,1.69,0,0,0-.35,1.25.93.93,0,0,0-.2.64l-.28.18c-.27.21-.43.53-.82.64-.89.24-1.09.67-.8,1.58.08.23.16.41,0,.65a3.44,3.44,0,0,1-4.22,1.15,8.8,8.8,0,0,1-.82-2.7,13,13,0,0,1-.14-2.49c.07-.24.13-.47.19-.7l.2-.36c.61-.08.79-.81,1.38-.92a1.61,1.61,0,0,0,.9-.32l1.4-.16,3.22.33Z"/><path class="cls-9" d="M90.48,46.74a3.44,3.44,0,0,0,4.22-1.15c.16-.24.08-.42,0-.65-.29-.91-.09-1.34.8-1.58.39-.11.55-.43.82-.64l.21.43a8.86,8.86,0,0,0,.06,2.3l-.66,2.16h0l-1.49,1.21c-.47.49-.23,1.07-.22,1.62l0,.89-3.78-.06C90.58,49.77,90.26,48.25,90.48,46.74Z"/><path class="cls-10" d="M86,53c.44-.12.84-.44,1.34-.35l1.47,8.3a6.15,6.15,0,0,1-.24,3.4,3.64,3.64,0,0,1-1.78,2c-.46-.35-.4-.9-.5-1.37-.27-1.21-.48-2.43-.75-3.63,0-.18.1-.67-.43-.48a1.09,1.09,0,0,0-.73.09,22.93,22.93,0,0,0-4.1.75l-.36,0-.86,0-.6-5c.33-.19.66-.38,1-.56,1.19-.65,2.48-1.09,3.61-1.85a15.49,15.49,0,0,0,2.7-1.19A.17.17,0,0,0,86,53Z"/><path class="cls-8" d="M102.22,107.34c-.26-1.35-.71-2.61-1-4-.91-4.47-1.89-8.92-2.85-13.39-.34-1.59-.69-3.18-1-4.77-.09-.45-.38-.79-.66-.32-.91,1.5-1.71,3.07-2.54,4.62,0,0,0,.06,0,.09a15.73,15.73,0,0,0,1.68,0c.68-.07.94.26,1.1.86.67,2.41,1.34,4.82,2.06,7.22.21.69.08.9-.64.89-2.73,0-5.45,0-8.17,0a1.72,1.72,0,0,0,.36,1.4c2.7,0,5.39,0,8.09,0a1.08,1.08,0,0,1,1.25.84c.51,1.78,1,3.57,1.52,5.35l.25,1.11c.22.67.14,1.18-.59,1.17-2.76,0-5.51,0-8.27,0a4.67,4.67,0,0,0,.39,1.52,87.24,87.24,0,0,1,9.43-.15A24.27,24.27,0,0,0,102.22,107.34Z"/><path class="cls-8" d="M69.73,56.2a.34.34,0,0,1-.19-.38A.31.31,0,0,1,69.73,56.2Z"/><path class="cls-8" d="M85.74,53.11A.16.16,0,0,1,86,53,.17.17,0,0,1,85.74,53.11Z"/><path class="cls-6" d="M102.23,107.72c-.26-1.41-.62-2.88-1-4.34-.91-4.47-1.89-8.92-2.84-13.39-.34-1.59-.69-3.18-1-4.77-.09-.45-.37-.79-.65-.33C95.8,86.4,95,88,94.17,89.52c0,0,0,.06,0,.09a2,2,0,0,0-.36.36c-1.11,1.91-2.26,3.8-3.27,5.75a3.11,3.11,0,0,0-.33,2.86,1.72,1.72,0,0,0,.35,1.4,61.15,61.15,0,0,0,1.84,6.78c0,.12-.08.25.06.34A9.43,9.43,0,0,0,93,109a4.61,4.61,0,0,0,.39,1.51c.82,2.57,1.19,5.24,1.83,7.85.08.34.11.69.16,1l-4.44.05a.72.72,0,0,1-.8-.66c-.18-.81-.33-1.62-.59-2.41-1.86-5.78-4-11.47-5.81-17.26a8.1,8.1,0,0,1-.42-4.43c.77-.82.88-1.94,1.29-2.91.29-.7,1-1.3.78-2.17A2,2,0,0,0,86,88.24a1.29,1.29,0,0,0,.49-.72c.71-1.65,1.36-3.33,2.16-4.94a4,4,0,0,0,.47-3.46l-.29-1.23c-.61-3-1.21-6.06-1.82-9.09-.26-.38,0-.89-.31-1.26a2.57,2.57,0,0,1,.09-1.2,3.64,3.64,0,0,0,1.78-2,6.15,6.15,0,0,0,.24-3.4l-1.47-8.3a2.68,2.68,0,0,1,1.49-.36c.16,1.74.56,3.45.85,5.17a4.24,4.24,0,0,0,2.55,3.3,3.16,3.16,0,0,0,3.59-.29,3.12,3.12,0,0,0,.93-3.24c-.29-1.6-.54-3.21-.81-4.82a1.45,1.45,0,0,1,1.44,0q.48,2.84,1,5.67a17.48,17.48,0,0,0,1.06,4.56c1,2.24,3,3.61,4.87,3.49.19,1.23.16,2.48.28,3.71.35,3.56.6,7.12.79,10.68.09,1.48.36,2.93.53,4.39.18,1.67.52,3.32.75,5,.35,2.6.66,5.21,1,7.81.22,1.65.46,3.31.7,5q1.48,11.16,3,22.31a3,3,0,0,1-.06,1.5,3.25,3.25,0,0,0,.07,2.56.56.56,0,0,1-.13.72c-2.4,0-4.79,0-7.19.07a2.72,2.72,0,0,1-1.6-.41c-.48-.83-.36-1.31.52-1.65s1.73-.6,2.61-.86c.52-.15.67-.4.54-1-.41-1.69-.75-3.4-1.11-5.1a3.36,3.36,0,0,0-.43-1.42,4.86,4.86,0,0,0-.27-1.73q-.8-3.66-1.61-7.31Z"/></g></g></g></svg>