<svg width="295" height="74" viewBox="0 0 295 74" fill="none" xmlns="http://www.w3.org/2000/svg">
<path fill-rule="evenodd" clip-rule="evenodd" d="M63.1346 10.8322L36.9834 0L10.8322 10.8322L0 36.9834L10.8322 63.1346L36.9834 73.9668L63.1346 63.1346L73.9668 36.9834L63.1346 10.8322ZM36.9834 63.2912C51.5128 63.2912 63.2912 51.5128 63.2912 36.9834C63.2912 22.4541 51.5128 10.6757 36.9834 10.6757C22.454 10.6757 10.6756 22.4541 10.6756 36.9834C10.6756 51.5128 22.454 63.2912 36.9834 63.2912Z" fill="#731022"/>
<path d="M22.1402 48.6428L31.5276 38.7341L35.506 42.3393L26.6002 52.7088L22.1402 48.6428Z" fill="#731022"/>
<path d="M36.913 32.9835L42.6223 26.9326L46.138 30.0897L40.6459 36.3816L36.913 32.9835Z" fill="#731022"/>
<path d="M50.7775 35.209L55.2431 30.3398L52.359 27.764L51.4843 28.5938L43.7292 21.6024C41.6616 19.8327 38.7885 18.9897 34.8221 24.206C36.1924 23.6579 38.7961 22.9727 40.7145 24.6171L48.6424 31.7925L47.8402 32.565L50.7775 35.209Z" fill="#731022"/>
<path d="M46.0697 23.1456L46.6327 22.5669L50.1088 25.6619L49.54 26.2449L46.0697 23.1456Z" fill="#731022"/>
<path d="M20.9169 27.4756L24.8147 30.9962L28.3964 27.0467L24.4308 23.4669C26.1394 22.9136 31.4512 23.2355 30.7557 29.2984L44.759 41.9193C48.7011 40.8258 51.677 43.8109 51.0993 47.5009L47.1856 44.0287L43.5561 48.0076L47.5049 51.5229C43.8564 52.4407 40.6464 50.0183 41.2402 45.6019L27.4559 33.0789C23.495 34.5375 19.9538 30.7204 20.9169 27.4756Z" fill="#731022"/>
<path d="M103.404 61.2812V20.7188H109.561V61.2812C109.561 62.1354 109.394 62.9375 109.061 63.6875C108.748 64.4375 108.311 65.0833 107.748 65.625C107.206 66.1875 106.561 66.625 105.811 66.9375C105.061 67.2708 104.258 67.4375 103.404 67.4375H98.5918V61.2812H103.404ZM103.092 7.90625H109.873V14.3125H103.092V7.90625ZM147.016 47.8438C147.016 48.6979 146.849 49.5 146.516 50.25C146.203 51 145.766 51.6562 145.203 52.2188C144.661 52.7604 144.016 53.1979 143.266 53.5312C142.536 53.8438 141.745 54 140.891 54H124.359C123.526 54 122.734 53.8438 121.984 53.5312C121.234 53.1979 120.578 52.7604 120.016 52.2188C119.474 51.6562 119.036 51 118.703 50.25C118.391 49.5 118.234 48.6979 118.234 47.8438V26.875C118.234 26.0208 118.391 25.2188 118.703 24.4688C119.036 23.7188 119.474 23.0729 120.016 22.5312C120.578 21.9688 121.234 21.5312 121.984 21.2188C122.734 20.8854 123.526 20.7188 124.359 20.7188H140.891C141.745 20.7188 142.536 20.8854 143.266 21.2188C144.016 21.5312 144.661 21.9688 145.203 22.5312C145.766 23.0729 146.203 23.7188 146.516 24.4688C146.849 25.2188 147.016 26.0208 147.016 26.875V47.8438ZM124.359 26.875V47.8438H140.891V26.875H124.359ZM184.814 47.8438C184.814 48.6979 184.648 49.5 184.314 50.25C184.002 51 183.564 51.6562 183.002 52.2188C182.46 52.7604 181.814 53.1979 181.064 53.5312C180.314 53.8438 179.512 54 178.658 54H161.502C160.668 54 159.877 53.8438 159.127 53.5312C158.377 53.1979 157.721 52.7604 157.158 52.2188C156.616 51.6562 156.179 51 155.846 50.25C155.533 49.5 155.377 48.6979 155.377 47.8438V7.90625H161.502V26.5938C161.543 25.7812 161.731 25.0208 162.064 24.3125C162.398 23.5833 162.835 22.9583 163.377 22.4375C163.939 21.8958 164.585 21.4792 165.314 21.1875C166.043 20.875 166.825 20.7188 167.658 20.7188H178.658C179.512 20.7188 180.314 20.8854 181.064 21.2188C181.814 21.5312 182.46 21.9688 183.002 22.5312C183.564 23.0729 184.002 23.7188 184.314 24.4688C184.648 25.2188 184.814 26.0208 184.814 26.875V47.8438ZM161.502 26.875V47.8438H178.658V26.875H161.502ZM213.238 47.8438V40.125H198.644C197.79 40.125 196.988 39.9688 196.238 39.6562C195.488 39.3229 194.832 38.8854 194.269 38.3438C193.728 37.7812 193.29 37.125 192.957 36.375C192.644 35.625 192.488 34.8229 192.488 33.9688V26.875C192.488 26.0208 192.644 25.2188 192.957 24.4688C193.29 23.7188 193.728 23.0729 194.269 22.5312C194.832 21.9688 195.488 21.5312 196.238 21.2188C196.988 20.8854 197.79 20.7188 198.644 20.7188H218.113V26.875H198.644V33.9688H213.238C214.092 33.9688 214.884 34.1354 215.613 34.4688C216.363 34.7812 217.019 35.2188 217.582 35.7812C218.144 36.3229 218.582 36.9688 218.894 37.7188C219.228 38.4688 219.394 39.2708 219.394 40.125V47.8438C219.394 48.6979 219.228 49.5 218.894 50.25C218.582 51 218.144 51.6562 217.582 52.2188C217.019 52.7604 216.363 53.1979 215.613 53.5312C214.884 53.8438 214.092 54 213.238 54H192.488V47.8438H213.238Z" fill="#333333"/>
<path d="M255.881 47.8438C255.881 48.6979 255.714 49.5 255.381 50.25C255.068 51 254.631 51.6562 254.068 52.2188C253.526 52.7604 252.881 53.1979 252.131 53.5312C251.401 53.8438 250.61 54 249.756 54H233.224C232.391 54 231.599 53.8438 230.849 53.5312C230.099 53.1979 229.443 52.7604 228.881 52.2188C228.339 51.6562 227.901 51 227.568 50.25C227.256 49.5 227.099 48.6979 227.099 47.8438V26.875C227.099 26.0208 227.256 25.2188 227.568 24.4688C227.901 23.7188 228.339 23.0729 228.881 22.5312C229.443 21.9688 230.099 21.5312 230.849 21.2188C231.599 20.8854 232.391 20.7188 233.224 20.7188H249.756C250.61 20.7188 251.401 20.8854 252.131 21.2188C252.881 21.5312 253.526 21.9688 254.068 22.5312C254.631 23.0729 255.068 23.7188 255.381 24.4688C255.714 25.2188 255.881 26.0208 255.881 26.875V47.8438ZM233.224 26.875V47.8438H249.756V26.875H233.224ZM286.242 54L270.367 39.7812V54H264.242V7.90625H270.367V33.8438L284.961 20.7188H293.617L275.742 36.7812L294.898 54H286.242Z" fill="#731022"/>
</svg>
