<svg xmlns="http://www.w3.org/2000/svg" viewBox="0 0 50 50"><defs><style>.cls-1{fill:#fff;}.cls-2{fill:#d00a38;}</style></defs><g id="Capa_2" data-name="Capa 2"><g id="Capa_1-2" data-name="Capa 1"><rect class="cls-1" width="50" height="50"/><path class="cls-2" d="M49,17Q42.23,11.42,35.52,5.78a1.71,1.71,0,0,0-2.69.08c-1.61,1.54-3.36,3-4.91,4.54-.82.85-2.8,1.43-1,3.57-.56.46-1.16.91-1.72,1.41Q13,26.38.88,37.38c-1,.92-1.25,1.67-.16,2.75a34.53,34.53,0,0,1,3.41,3.94c.77,1,1.4.89,2.36.31,9.8-6,19.63-11.93,29.42-17.93,1.09-.67,1.87-1,2.71.28.71,1.07,1.5,1.17,2.54.18,2.63-2.49,5.35-4.89,8.07-7.27C50.41,18.6,50.14,17.86,49,17ZM20.75,25.79Q13,32.51,5.28,39.19c-.46.39-1,.89-1.63.19S3.49,38.22,4,37.8q7.73-6.7,15.48-13.39c.46-.4,1-.87,1.67-.47.21.12.32.41.43.55A1.91,1.91,0,0,1,20.75,25.79Zm19.14-6.28a.94.94,0,0,1-1.32-.12c-1.48-1.46-3-2.91-4.44-4.38a1.12,1.12,0,0,1,.11-1.8c.56-.54,1.17-1.27,1.93-.57,1.64,1.5,3.16,3.11,4.72,4.7.13.13.13.38.21.61C41,18.72,40.4,19.09,39.89,19.51Z"/></g></g></svg>