<svg xmlns="http://www.w3.org/2000/svg" viewBox="0 0 50 50"><defs><style>.cls-1{fill:#fff;}.cls-2{fill:#d00a38;}</style></defs><g id="Capa_2" data-name="Capa 2"><g id="Capa_1-2" data-name="Capa 1"><rect class="cls-1" width="50" height="50"/><path class="cls-2" d="M48.85,10.5c-2.28-5.37-6.52-8.31-12.36-8.87C27,.88,19.17,10.39,21.9,19.48a2.32,2.32,0,0,1-.9,2.93C14.69,27.78,8.44,33.21,2.16,38.62A5.58,5.58,0,0,0,.05,41.88a2.34,2.34,0,0,0,2.32,3,3.65,3.65,0,0,0,2.49-1c1-1,1.61-.6,2.38.26,1.07,1.18,2.26,2.27,3.39,3.41.76.78,1.62,1.23,2.53.34s.37-1.79-.34-2.54c-1.16-1.2-2.36-2.38-3.55-3.55-.45-.45-.92-.8-.18-1.48s1.05-.35,1.54.15c1,1,2,2,3,3a1.23,1.23,0,0,0,2,.09,1.27,1.27,0,0,0-.1-2c-.88-.9-1.78-1.78-2.66-2.67-.48-.47-1.17-.88-.18-1.58.63-.44,1.06-1.08,1.87-.16,1.15,1.3,2.43,2.49,3.68,3.71.63.63,1.35,1.13,2.15.31s.51-1.62-.24-2.35C19,37.75,18,36.6,16.82,35.58c-.83-.75-.8-1.25.07-2,2.62-2.17,5.24-4.36,7.76-6.66.91-.83,1.46-.76,2.45-.12,6.21,4.05,15.25,2.92,19.62-2.45C50.12,20.21,51,15.47,48.85,10.5ZM38.77,16A4,4,0,0,1,35,12a3.81,3.81,0,0,1,4.08-3.59,3.68,3.68,0,0,1,3.48,3.92A3.75,3.75,0,0,1,38.77,16Z"/></g></g></svg>