<svg xmlns="http://www.w3.org/2000/svg" viewBox="0 0 50 50"><defs><style>.cls-1{fill:#fff;}.cls-2{fill:#d00a38;}</style></defs><g id="Capa_2" data-name="Capa 2"><g id="Capa_1-2" data-name="Capa 1"><rect class="cls-1" width="50" height="50"/><path class="cls-2" d="M25.07,50c-6.31,0-12.63-.11-18.94,0C.36,50.11-.61,46.56.29,42.46a9.84,9.84,0,0,1,9.29-7.85c2.42-.13,4.86,0,7.28-.09,1,0,1.29.34,1.46,1.27.7,3.79,3.14,6,6.55,6s6.07-2.2,6.71-6.06c.17-1,.57-1.19,1.45-1.17,2.5.06,5,0,7.49.09A10,10,0,0,1,50,44.39c.12,3.72-1.61,5.54-5.35,5.55C38.12,50,31.6,50,25.07,50Z"/><path class="cls-2" d="M25.11,19.17c3.19,0,6.38,0,9.56,0,1.19,0,1.48.37,1.52,1.52.19,5.41-1.36,9.84-6.59,12.31-.81.38-.75,1-.8,1.7-.18,2.69-1.58,4.14-3.92,4.13s-3.59-1.46-3.62-4.13c0-1.16-.62-1.49-1.43-2a12.19,12.19,0,0,1-6-12.68c.19-1.12.89-.86,1.51-.87C18.6,19.15,21.85,19.17,25.11,19.17Z"/><path class="cls-2" d="M25,16.25H12.53c-1,0-2.27.14-2.46-1.25s.85-1.68,2-1.68c1.36,0,.79-1.08.83-1.69A12,12,0,0,1,19.34,1.41c1.33-.76,2-.57,1.77,1.13a16.64,16.64,0,0,0,0,2.91c.06.88.37,1.64,1.47,1.64S24,6.27,24,5.42c.09-1.17,0-2.36.07-3.53C24.17,1.22,23.5.08,25,0s.9,1.09.95,1.77c.09,1.17,0,2.35,0,3.53,0,.9.41,1.71,1.43,1.72s1.51-.77,1.48-1.82c0-.9.07-1.81,0-2.7-.18-1.66.44-2,1.81-1.18a12.07,12.07,0,0,1,6.42,10c.08,1.1-.17,2.21,1.61,2.05A1.21,1.21,0,0,1,39.92,15c-.16,1-.85,1.31-1.82,1.3C33.73,16.23,29.37,16.25,25,16.25Z"/></g></g></svg>