<svg xmlns="http://www.w3.org/2000/svg" viewBox="0 0 50 50"><defs><style>.cls-1{fill:#fff;}.cls-2{fill:#d00a38;}</style></defs><g id="Capa_2" data-name="Capa 2"><g id="Capa_1-2" data-name="Capa 1"><rect class="cls-1" width="50" height="50"/><path class="cls-2" d="M34.72,3.82c-.87,3-1.84,6.38-2.82,9.77-.19.66-.36,1.33-.53,2-.95,3.71-1,3.91,2.85,4.67,5,1,6.18,3.42,2.35,7.66-5.85,6.48-11.4,13.23-17.09,19.86A9.35,9.35,0,0,1,18.36,49c-1.14.94-2.37,1.44-3.77.45a2.82,2.82,0,0,1-1.21-3.59C15.24,40.73,17,35.55,19,30.45c.6-1.55.19-2.11-1.24-2.44s-2.7-.67-4-1.1c-2.57-.84-3.36-3.16-1.64-5.21C17.8,14.84,23.59,8,29.37,1.22a2.9,2.9,0,0,1,3.53-1C34.32.82,34.84,1.93,34.72,3.82Z"/></g></g></svg>