<svg xmlns="http://www.w3.org/2000/svg" viewBox="0 0 50 50"><defs><style>.cls-1{fill:#fff;}.cls-2{fill:#d00a38;}.cls-3{fill:#d00b39;}</style></defs><g id="Capa_2" data-name="Capa 2"><g id="Capa_1-2" data-name="Capa 1"><rect class="cls-1" width="50" height="50"/><path class="cls-2" d="M22.3,25.05c-4,0-8-.1-12.06,0-2,.06-2.55-.63-2.42-2.52.15-2.13.08-4.29,0-6.44,0-1.25.44-1.73,1.7-1.68,1.59.06,3.19,0,4.78,0,1.89-.09,3.19-1,3.26-3,.05-1.65.87-2.11,2.4-2,2.14.09,4.29.06,6.44,0,1.33,0,2.13.36,2.15,1.83,0,1.8,1.19,2.6,2.75,2.84s3.16.24,4.75.37A14.5,14.5,0,0,1,49.59,28.86c0,2.52-.82,3.43-3.28,3.5-1.59,0-3.18,0-4.78,0a2.65,2.65,0,0,1-2.88-2.81c-.21-3.59-1.1-4.44-4.72-4.48C30.06,25,26.18,25.05,22.3,25.05Z"/><path class="cls-2" d="M50,43.05c-.16,2.76-1.23,4.41-3.31,5.36a5.08,5.08,0,0,1-5.78-.93A4.88,4.88,0,0,1,39.37,42c.76-2.45,2.67-4.17,4.1-6.19a1.12,1.12,0,0,1,1.67-.26C47.26,37.9,49.49,40.19,50,43.05Z"/><path class="cls-3" d="M23.49,7.15c-1.66,0-3.33,0-5,0-2-.08-3.17-1.18-3.25-2.8a3,3,0,0,1,3.1-3.18c3.45-.1,6.92-.11,10.37,0a2.87,2.87,0,0,1,2.91,3.11c-.07,1.89-1.31,2.7-3,2.84s-3.45,0-5.18,0Z"/><path class="cls-2" d="M0,19.87c0-2,0-4,0-6,0-1.4.58-2.06,2-2,.69,0,1.38,0,2.07,0,1.15,0,1.82.5,1.81,1.75q0,6.33,0,12.67c0,1.24-.61,1.76-1.77,1.78H1.82C.54,28,0,27.42,0,26.1.06,24,0,22,0,19.87Z"/></g></g></svg>