<svg xmlns="http://www.w3.org/2000/svg" viewBox="0 0 50 50"><defs><style>.cls-1{fill:#fff;}.cls-2{fill:#d00a38;}</style></defs><g id="Capa_2" data-name="Capa 2"><g id="Capa_1-2" data-name="Capa 1"><rect class="cls-1" width="50" height="50"/><path class="cls-2" d="M8.2,36.66a7.67,7.67,0,0,1-1.75-.59c-1.2-.72-2.2-2.19-3.75-.42-.34.39-1.05,0-1.45-.46a1.26,1.26,0,0,1,.07-1.87c.91-.83.61-1.35-.05-2.16-1.8-2.22-1.68-4.28.32-6.29Q12.69,13.74,23.83,2.64c2-2,4-2.11,6.28-.3.88.71,1.33.72,2.2,0,2.1-1.79,4.35-1.61,6.32.3,1.29,1.25,2.56,2.54,3.83,3.82,2,2.08,2.33,3.82.84,6.33-3,5.06-6.06,10.08-9.09,15.12-.39.64-1,1.24-.76,2.07A3.15,3.15,0,0,0,35,31.82c.81.47,1.06-.58,1.54-.95.65-.52,1.17-1.19,1.81-1.72a1.39,1.39,0,0,1,2.05,0,1.22,1.22,0,0,1,0,1.86c-.94.92-.77,1.62.21,2.32s.6,1.17-.08,1.8C39.3,36.3,38.11,37.47,37,38.7S35.06,41,33.77,39c-.57-.87-1-.13-1.43.26-.71.63-1.49.85-2.19.08a1.42,1.42,0,0,1,.18-2.2c.16-.14.29-.31.45-.44,1.73-1.34,2.78-2.51.56-4.6-1.59-1.5-.9-3.58.17-5.36,3-5,5.92-10,9-14.93,1-1.62.74-2.59-.55-3.72S37.73,5.83,36.6,4.7a1.63,1.63,0,0,0-2.54-.08c-1.15,1,0,1.38.39,1.94a4.4,4.4,0,0,1-.32,6.2Q22.91,24.07,11.61,35.3A4.8,4.8,0,0,1,8.2,36.66Z"/><path class="cls-2" d="M50,44.69a4.32,4.32,0,0,1-6.48,3.64c-2.2-1.37-3.72-3.51-5.61-5.24-.44-.41-.48-.75,0-1.2,1.69-1.65,3.35-3.32,5-5,.38-.38.68-.59,1.17-.07,1.61,1.71,3.3,3.36,4.9,5.08A4.57,4.57,0,0,1,50,44.69Z"/></g></g></svg>